# Blender v2.78 (sub 0) OBJ File: 'pouch.blend'
# www.blender.org
o Cube
v 1.072811 0.414708 -1.072811
v 1.072811 0.414708 1.072811
v -1.072811 0.414708 1.072811
v -1.072811 0.414708 -1.072811
v 1.122568 2.042170 -1.122567
v 1.122567 2.042170 1.122568
v -1.122568 2.042170 1.122567
v -1.122568 2.042170 -1.122568
v 1.286391 0.403265 -0.000000
v 0.000000 0.403265 -1.286391
v 1.270366 1.659469 -1.270366
v -0.000000 0.403264 1.286391
v 1.270366 1.659469 1.270366
v -1.286391 0.403264 -0.000000
v -1.270366 1.659469 1.270366
v -1.270366 1.659469 -1.270366
v 1.566016 2.066262 0.000001
v 0.000000 2.066262 -1.566016
v -0.000001 2.066262 1.566016
v -1.566016 2.066262 -0.000000
v 0.000000 1.659469 -1.662105
v -1.662105 1.659469 -0.000000
v -0.000000 1.659469 1.662105
v 1.662105 1.659469 0.000000
v 0.000000 0.022982 -0.000000
v 1.255112 0.409129 0.564160
v -0.564160 0.409129 -1.255112
v -0.564160 0.409129 1.255111
v -1.255112 0.409129 -0.564160
v 1.255112 0.409129 -0.564160
v 0.564160 0.409129 -1.255112
v 1.270196 1.049036 -1.270195
v 0.564160 0.409129 1.255112
v 1.270195 1.049036 1.270196
v -1.255112 0.409129 0.564160
v -1.270196 1.049036 1.270195
v -1.270195 1.049036 -1.270196
v -0.662827 1.659469 -1.600206
v 0.662827 1.659469 -1.600206
v 0.000000 0.910856 -1.639237
v -1.600206 1.659469 -0.662827
v -1.600206 1.659469 0.662827
v -1.639237 0.910856 -0.000000
v -0.662827 1.659469 1.600206
v 0.662827 1.659469 1.600206
v -0.000000 0.910856 1.639237
v 1.600206 1.659469 0.662828
v 1.600206 1.659469 -0.662827
v 1.639237 0.910856 0.000000
v -0.662827 0.083616 -0.000000
v 0.662827 0.083616 -0.000000
v 0.000000 0.083616 -0.662827
v 0.000000 0.083616 0.662827
v 0.625957 0.135442 0.636826
v 0.625957 0.184642 -0.636827
v -0.625957 0.184642 -0.636827
v 1.537325 0.936857 -0.648395
v 1.537325 0.936857 0.648395
v 0.648395 0.936857 1.537326
v -0.648395 0.936857 1.537325
v -1.537325 0.936857 0.648395
v -1.537325 0.936857 -0.648395
v 0.648395 0.936857 -1.537325
v -0.648395 0.936857 -1.537325
v -0.625957 0.135442 0.636826
v 1.122540 2.424795 0.506722
v -0.506721 2.424795 -1.122541
v -0.506721 2.424795 1.122541
v -1.122541 2.424795 -0.506721
v 1.122541 2.424795 -0.506720
v 0.506721 2.424795 -1.122540
v 0.506720 2.424795 1.122541
v -1.122541 2.424795 0.506721
v -0.036377 2.805305 0.663195
v -0.036377 2.863850 -0.752197
v 0.687093 2.803694 0.001100
v -0.877885 2.863850 0.001099
v -0.554890 2.834217 -0.509678
v 0.519093 2.834218 -0.566854
v 0.482136 2.834217 0.560470
v -0.505190 2.834217 0.440064
v -0.561896 3.092410 0.305831
v -1.042234 3.324367 0.026456
v -0.807672 3.316672 0.368338
v -0.974737 3.187695 -0.404898
v -0.715537 3.318801 -0.605397
v -1.280572 3.487714 -0.256717
v -0.375307 3.188981 0.732385
v 0.348581 3.165255 0.743749
v -0.036850 3.445769 0.650738
v 0.830080 3.125181 0.640078
v 0.796296 3.094210 -0.778859
v 0.055646 3.257363 -0.887052
v -0.378551 3.050212 -0.786451
v 1.045467 3.103097 0.182028
v -0.522669 3.051418 -0.026986
v -0.293938 3.107784 -0.350485
v -0.242647 3.122007 0.221026
v 0.207987 3.136410 0.369149
v 0.579752 3.105834 0.312802
v 0.192939 3.041877 -0.389760
v 0.489791 3.004514 -0.125346
v 0.064178 2.989748 -0.099593
vt 0.2504 0.3864
vt 0.3092 0.3324
vt 0.2456 0.3056
vt 0.2066 0.0709
vt 0.3167 0.0295
vt 0.2878 0.1027
vt 0.3301 0.7161
vt 0.4042 0.6492
vt 0.4025 0.7486
vt 0.5309 0.7161
vt 0.6050 0.6492
vt 0.6032 0.7486
vt 0.6450 0.2300
vt 0.7280 0.1746
vt 0.6313 0.1519
vt 0.7999 0.7910
vt 0.7331 0.8453
vt 0.8142 0.8705
vt 0.1608 0.6230
vt 0.1484 0.5475
vt 0.0664 0.5905
vt 0.0747 0.7689
vt 0.0730 0.6696
vt 0.0006 0.7021
vt 0.7324 0.6361
vt 0.7965 0.7082
vt 0.7999 0.6253
vt 0.9484 0.7347
vt 0.8934 0.7895
vt 0.9484 0.8448
vt 0.6078 0.0553
vt 0.6679 0.1150
vt 0.7353 0.0470
vt 0.5530 0.1388
vt 0.5316 0.0486
vt 0.0006 0.8895
vt 0.0782 0.8895
vt 0.0782 0.9675
vt 0.6910 0.7952
vt 0.6480 0.7222
vt 0.7305 0.6737
vt 0.5966 0.8277
vt 0.6787 0.8707
vt 0.1590 0.8779
vt 0.1590 0.9555
vt 0.0810 0.9555
vt 0.4903 0.7952
vt 0.4473 0.7222
vt 0.5297 0.6737
vt 0.3959 0.8277
vt 0.4780 0.8707
vt 0.2111 0.1371
vt 0.2402 0.2232
vt 0.1746 0.1939
vt 0.9617 0.5369
vt 0.9617 0.6089
vt 0.8962 0.5681
vt 0.1694 0.3772
vt 0.1016 0.2976
vt 0.0879 0.3774
vt 0.0791 0.5371
vt 0.1648 0.4617
vt 0.0802 0.4570
vt 0.7327 0.8829
vt 0.8113 0.9518
vt 0.8113 0.8717
vt 0.2416 0.5461
vt 0.1601 0.5463
vt 0.2054 0.7010
vt 0.2811 0.6289
vt 0.2014 0.6289
vt 0.8260 0.1721
vt 0.8879 0.2224
vt 0.8879 0.1414
vt 0.8164 0.6091
vt 0.8950 0.5402
vt 0.8153 0.5369
vt 0.2171 0.7787
vt 0.2790 0.7284
vt 0.2014 0.7115
vt 0.2054 0.5568
vt 0.2858 0.5475
vt 0.0354 0.3172
vt 0.0086 0.3809
vt 0.0006 0.4526
vt 0.6544 0.3878
vt 0.7185 0.4599
vt 0.6536 0.4599
vt 0.8808 0.0846
vt 0.9449 0.0273
vt 0.9449 0.0956
vt 0.7218 0.5428
vt 0.6551 0.5970
vt 0.6544 0.5320
vt 0.4926 0.3878
vt 0.5567 0.4599
vt 0.4919 0.4599
vt 0.8876 0.3816
vt 0.9516 0.3243
vt 0.9516 0.3926
vt 0.5600 0.5428
vt 0.4933 0.5970
vt 0.4926 0.5320
vt 0.3309 0.5320
vt 0.3950 0.4599
vt 0.3301 0.4599
vt 0.8951 0.4366
vt 0.9592 0.4939
vt 0.9592 0.4256
vt 0.3983 0.3771
vt 0.3316 0.3228
vt 0.3309 0.3878
vt 0.8922 0.7082
vt 0.8922 0.6235
vt 0.9449 0.0273
vt 0.8687 0.0006
vt 0.5676 0.9499
vt 0.5676 0.8719
vt 0.4899 0.8719
vt 0.7324 0.7803
vt 0.1739 0.2976
vt 0.2493 0.4664
vt 0.3289 0.3986
vt 0.7896 0.0109
vt 0.8401 0.0684
vt 0.7365 0.0786
vt 0.4887 0.8719
vt 0.4162 0.9502
vt 0.4100 0.8719
vt 0.7443 0.2186
vt 0.8091 0.1628
vt 0.8091 0.2752
vt 0.4088 0.9506
vt 0.3317 0.8795
vt 0.4088 0.8719
vt 0.7965 0.1403
vt 0.8675 0.1381
vt 0.2113 0.2964
vt 0.1381 0.2675
vt 0.0984 0.1920
vt 0.0570 0.2964
vt 0.3167 0.1838
vt 0.1719 0.0059
vt 0.2435 0.0006
vt 0.9958 0.0770
vt 0.9461 0.0603
vt 0.9958 0.0006
vt 0.3323 0.6235
vt 0.9428 0.8906
vt 0.9917 0.8717
vt 0.9917 0.9493
vt 0.5331 0.6235
vt 0.2699 0.9513
vt 0.3188 0.9701
vt 0.3188 0.8925
vt 0.7353 0.2507
vt 0.1177 0.6960
vt 0.2002 0.5561
vt 0.9453 0.2002
vt 0.9942 0.2191
vt 0.9942 0.1414
vt 0.0028 0.7947
vt 0.7317 0.7082
vt 0.2919 0.8913
vt 0.2919 0.8105
vt 0.2014 0.8288
vt 0.3983 0.5428
vt 0.4907 0.5446
vt 0.5526 0.0006
vt 0.8818 0.5357
vt 0.8153 0.4898
vt 0.8818 0.4256
vt 0.5600 0.3771
vt 0.6524 0.3752
vt 0.7305 0.8621
vt 0.1715 0.7959
vt 0.1715 0.8767
vt 0.0810 0.8585
vt 0.7218 0.3771
vt 0.8142 0.3752
vt 0.5297 0.8621
vt 0.5594 0.2241
vt 0.7317 0.9551
vt 0.2858 0.7103
vt 0.8103 0.2393
vt 0.8950 0.6203
vt 0.2790 0.8094
vt 0.7361 0.2976
vt 0.8891 0.1962
vt 0.9441 0.1414
vt 0.9441 0.2515
vt 0.7361 0.6223
vt 0.8142 0.5446
vt 0.8754 0.2976
vt 0.5744 0.2976
vt 0.6468 0.8719
vt 0.6468 0.9495
vt 0.5688 0.8719
vt 0.5744 0.6223
vt 0.6524 0.5446
vt 0.8830 0.5206
vt 0.4126 0.6223
vt 0.7260 0.9495
vt 0.7260 0.8719
vt 0.6480 0.9495
vt 0.4126 0.2976
vt 0.4907 0.3752
vt 0.9484 0.6235
vt 0.8934 0.6782
vt 0.9484 0.7335
vt 0.0006 0.8724
vt 0.0798 0.8883
vt 0.0798 0.7959
vt 0.9449 0.0956
vt 0.8922 0.7929
vt 0.2002 0.7445
vt 0.3289 0.4708
vt 0.8675 0.0006
vt 0.4887 0.9506
vt 0.7365 0.1414
vt 0.3301 0.9506
vt 0.4918 0.2944
vt 0.4918 0.2572
vt 0.4438 0.2652
vt 0.9935 0.6235
vt 0.9935 0.6916
vt 0.9496 0.6471
vt 0.9723 0.8314
vt 0.9723 0.7604
vt 0.9496 0.7835
vt 0.9994 0.2203
vt 0.9453 0.2408
vt 0.9994 0.2792
vt 0.3875 0.2922
vt 0.4426 0.2572
vt 0.3724 0.2583
vt 0.3252 0.6248
vt 0.3252 0.5475
vt 0.2870 0.5848
vt 0.3179 0.2633
vt 0.3288 0.8663
vt 0.3288 0.8105
vt 0.2931 0.8416
vt 0.9924 0.1383
vt 0.9461 0.0920
vt 0.9924 0.0782
vt 0.3990 0.2367
vt 0.3997 0.2043
vt 0.3412 0.1934
vt 0.1962 0.8779
vt 0.1602 0.8873
vt 0.1962 0.9338
vt 0.2687 0.8925
vt 0.2687 0.9579
vt 0.2014 0.9560
vt 0.2146 0.8965
vt 0.9928 0.7592
vt 0.9496 0.7445
vt 0.9928 0.6928
vt 0.3277 0.6877
vt 0.2870 0.6672
vt 0.3277 0.6260
vt 0.1677 0.2390
vt 0.0388 0.1453
vt 0.0006 0.1683
vt 0.9416 0.8717
vt 0.8963 0.8964
vt 0.9416 0.9821
vt 0.0429 0.0706
vt 0.8103 0.2766
vt 0.8601 0.2903
vt 0.8601 0.2405
vt 0.1990 0.8623
vt 0.1990 0.7959
vt 0.1727 0.8200
vt 0.4426 0.2929
vt 0.1031 0.2431
vt 0.8125 0.9302
vt 0.8951 0.8717
vt 0.8951 0.9496
vt 0.8299 0.8862
vt 0.4400 0.1898
vt 0.4483 0.2560
vt 0.5304 0.1500
vt 0.5176 0.1971
vt 0.4737 0.1520
vt 0.5304 0.0930
vt 0.4010 0.1621
vt 0.3416 0.1489
vt 0.3189 0.1036
vt 0.3696 0.1103
vt 0.3179 0.0406
vt 0.3659 0.0624
vt 0.4645 0.0902
vt 0.4956 0.0039
vt 0.8742 0.2976
vt 0.8742 0.4245
vt 0.8153 0.3534
vt 0.4230 0.0609
vt 0.3269 0.7762
vt 0.2802 0.7357
vt 0.3269 0.7115
vt 0.3687 0.0006
vt 0.4321 0.1147
vn -0.4091 -0.8990 0.1565
vn -0.4704 0.7572 0.4532
vn 0.7819 0.5485 0.2963
vn -0.2963 0.5485 0.7819
vn -0.7819 0.5485 -0.2963
vn -0.4220 -0.3865 -0.8201
vn -0.3397 0.5469 -0.7652
vn 0.2963 0.5485 -0.7819
vn 0.1547 -0.4850 -0.8607
vn -0.8788 -0.0004 -0.4771
vn -0.9952 -0.0304 0.0929
vn -0.7652 0.5469 0.3397
vn -0.4771 -0.0004 0.8788
vn 0.0929 -0.0304 0.9952
vn 0.3397 0.5469 0.7652
vn 0.8788 -0.0004 0.4771
vn 0.9952 -0.0304 -0.0929
vn 0.7652 0.5469 -0.3397
vn 0.0709 0.8077 0.5853
vn -0.5411 0.7474 -0.3855
vn -0.3484 -0.9225 -0.1665
vn 0.1623 -0.9826 -0.0899
vn 0.0922 -0.9071 0.4107
vn 0.0908 -0.9922 0.0860
vn 0.4559 -0.8894 0.0345
vn 0.4091 -0.8990 0.1565
vn 0.0345 -0.8894 -0.4559
vn 0.1356 -0.9268 -0.3501
vn 0.3484 -0.9225 -0.1665
vn -0.1356 -0.9268 -0.3501
vn -0.0345 -0.8894 -0.4559
vn -0.1623 -0.9826 -0.0899
vn 0.8200 -0.5700 -0.0514
vn 0.8207 -0.4867 -0.2995
vn 0.8207 -0.4867 0.2995
vn 0.8200 -0.5700 0.0514
vn 0.0514 -0.5700 0.8200
vn 0.2995 -0.4867 0.8207
vn -0.2995 -0.4867 0.8207
vn -0.0514 -0.5700 0.8200
vn -0.8200 -0.5700 0.0514
vn -0.8207 -0.4867 0.2995
vn -0.8207 -0.4867 -0.2995
vn -0.8200 -0.5700 -0.0514
vn 0.0929 -0.0304 -0.9952
vn 0.4220 -0.3865 -0.8201
vn -0.4771 -0.0004 -0.8788
vn -0.1547 -0.4850 -0.8607
vn -0.4559 -0.8894 0.0345
vn -0.0908 -0.9922 0.0860
vn -0.0922 -0.9071 0.4107
vn -0.1106 0.7073 -0.6982
vn -0.4507 0.7255 -0.5201
vn 0.6426 0.7659 -0.0205
vn 0.5324 0.7190 -0.4467
vn 0.2351 0.7800 -0.5799
vn 0.5064 0.7324 0.4550
vn 0.6426 0.7659 0.0205
vn -0.0071 0.7736 0.6336
vn -0.4615 0.7682 0.4437
vn -0.1578 -0.8970 0.4128
vn -0.4517 0.7578 0.4708
vn 0.9692 0.2289 0.0905
vn 0.7785 0.4639 0.4227
vn 0.7652 0.5469 0.3397
vn -0.0905 0.2289 0.9692
vn -0.4227 0.4639 0.7785
vn -0.3397 0.5469 0.7652
vn -0.9692 0.2289 -0.0905
vn -0.7785 0.4639 -0.4227
vn -0.7652 0.5469 -0.3397
vn -0.2995 -0.4867 -0.8207
vn -0.0905 0.2289 -0.9692
vn -0.4227 0.4639 -0.7785
vn -0.2963 0.5485 -0.7819
vn 0.4227 0.4639 -0.7785
vn 0.0905 0.2289 -0.9692
vn 0.3397 0.5469 -0.7652
vn 0.0514 -0.5700 -0.8200
vn -0.9095 -0.0873 -0.4065
vn -0.9834 -0.0887 0.1581
vn -0.7785 0.4639 0.4227
vn -0.9692 0.2289 0.0905
vn -0.7819 0.5485 0.2963
vn -0.4065 -0.0873 0.9095
vn 0.1581 -0.0887 0.9834
vn 0.4227 0.4639 0.7785
vn 0.0905 0.2289 0.9692
vn 0.2963 0.5485 0.7819
vn 0.9095 -0.0873 0.4065
vn 0.9834 -0.0887 -0.1581
vn 0.7785 0.4639 -0.4227
vn 0.9692 0.2289 -0.0905
vn 0.7819 0.5485 -0.2963
vn 0.0066 0.7739 0.6333
vn -0.7423 0.6407 -0.1963
vn -0.4559 -0.8894 -0.0345
vn 0.0899 -0.9828 -0.1611
vn 0.0345 -0.8894 0.4559
vn 0.0859 -0.9922 0.0908
vn 0.4064 -0.9085 0.0975
vn 0.1578 -0.8970 0.4128
vn 0.1634 -0.9220 -0.3511
vn 0.3467 -0.9283 -0.1345
vn 0.4559 -0.8894 -0.0345
vn -0.3467 -0.9283 -0.1345
vn -0.1634 -0.9220 -0.3511
vn -0.0899 -0.9828 -0.1611
vn 0.8607 -0.4850 -0.1547
vn 0.8201 -0.3865 -0.4220
vn 0.9095 -0.0873 -0.4065
vn 0.8788 -0.0004 -0.4771
vn 0.8201 -0.3865 0.4220
vn 0.8607 -0.4850 0.1547
vn 0.9834 -0.0887 0.1581
vn 0.9952 -0.0304 0.0929
vn 0.1547 -0.4850 0.8607
vn 0.4220 -0.3865 0.8201
vn 0.4065 -0.0873 0.9095
vn 0.4771 -0.0004 0.8788
vn -0.4220 -0.3865 0.8201
vn -0.1547 -0.4850 0.8607
vn -0.1581 -0.0887 0.9834
vn -0.0929 -0.0304 0.9952
vn -0.8607 -0.4850 0.1547
vn -0.8201 -0.3865 0.4220
vn -0.9095 -0.0873 0.4065
vn -0.8788 -0.0004 0.4771
vn -0.8201 -0.3865 -0.4220
vn -0.8607 -0.4850 -0.1547
vn -0.9834 -0.0887 -0.1581
vn -0.9952 -0.0304 -0.0929
vn 0.1581 -0.0887 -0.9834
vn 0.4771 -0.0004 -0.8788
vn 0.4065 -0.0873 -0.9095
vn 0.2995 -0.4867 -0.8207
vn -0.4065 -0.0873 -0.9095
vn -0.0929 -0.0304 -0.9952
vn -0.1581 -0.0887 -0.9834
vn -0.0514 -0.5700 -0.8200
vn -0.4064 -0.9085 0.0975
vn -0.0859 -0.9922 0.0908
vn -0.0345 -0.8894 0.4559
vn -0.3001 0.7821 -0.5461
vn -0.5241 0.7234 -0.4494
vn 0.5655 0.8154 -0.1235
vn 0.4450 0.7162 -0.5376
vn 0.1030 0.7127 -0.6939
vn 0.4534 0.7298 0.5117
vn 0.5414 0.8267 0.1533
vn -0.1884 0.8424 0.5049
vn -0.7425 0.6403 0.1968
vn -0.7453 0.1713 0.6443
vn -0.5737 -0.2477 0.7807
vn -0.5709 -0.7303 0.3752
vn -0.9417 -0.3338 -0.0416
vn -0.4736 -0.3191 -0.8209
vn -0.6503 -0.6619 -0.3728
vn -0.5525 -0.1591 -0.8182
vn -0.6613 -0.7386 0.1305
vn -0.3987 -0.4918 0.7740
vn -0.5568 -0.7238 0.4075
vn -0.9167 0.0064 0.3995
vn -0.0218 -0.1961 0.9803
vn -0.0048 0.3088 0.9511
vn 0.1991 -0.4120 0.8892
vn 0.1558 -0.4296 0.8895
vn 0.5849 -0.7696 0.2563
vn 0.5768 -0.7886 -0.2130
vn 0.0631 -0.3367 -0.9395
vn 0.1809 -0.7302 -0.6589
vn -0.0728 -0.3080 -0.9486
vn -0.2882 -0.6572 -0.6965
vn -0.6436 -0.3480 -0.6817
vn 0.6809 -0.7123 -0.1700
vn 0.5254 -0.8015 0.2857
vn 0.4209 0.8687 0.2612
vn 0.4710 0.8754 0.1085
vn 0.4254 0.8630 -0.2724
vn 0.5369 0.8166 -0.2120
vn -0.4367 0.8989 -0.0339
vn 0.2513 0.9078 0.3358
vn 0.1822 0.8722 -0.4539
vn 0.1015 0.7706 -0.6292
vn -0.3516 0.6709 0.6529
vn 0.6080 0.7409 -0.2853
vn 0.1891 0.7386 -0.6471
vn 0.0601 0.9927 -0.1046
vn 0.0663 0.9926 -0.1013
vn 0.1535 0.9214 0.3569
vn 0.1508 0.9216 0.3577
vn -0.1970 0.9795 0.0420
vn 0.0025 0.9905 0.1371
vn -0.0088 0.9986 -0.0523
vn -0.0545 0.9752 -0.2143
vn 0.0445 0.9713 -0.2337
vn -0.0504 0.9575 -0.2841
vn 0.0745 0.9450 -0.3185
vn 0.0577 0.9412 -0.3330
vn 0.1327 0.9563 0.2605
vn 0.1491 0.9596 0.2386
vn -0.0241 0.9858 0.1664
s off
f 65/1/1 3/2/1 35/3/1
f 81/4/2 7/5/2 68/6/2
f 66/7/3 47/8/3 17/9/3
f 68/10/4 44/11/4 19/12/4
f 69/13/5 41/14/5 20/15/5
f 64/16/6 4/17/6 37/18/6
f 38/19/7 8/20/7 67/21/7
f 39/22/8 18/23/8 71/24/8
f 31/25/9 40/26/9 63/27/9
f 41/28/10 16/29/10 37/30/10
f 42/31/11 22/32/11 43/33/11
f 73/34/12 42/31/12 7/35/12
f 44/36/13 15/37/13 36/38/13
f 45/39/14 23/40/14 46/41/14
f 72/42/15 45/39/15 6/43/15
f 47/44/16 13/45/16 34/46/16
f 48/47/17 24/48/17 49/49/17
f 70/50/18 48/47/18 5/51/18
f 74/52/19 72/53/19 80/54/19
f 69/55/20 77/56/20 78/57/20
f 50/58/21 29/59/21 56/60/21
f 55/61/22 25/62/22 52/63/22
f 33/64/23 53/65/23 54/66/23
f 54/67/24 25/62/24 51/68/24
f 26/69/25 51/70/25 9/71/25
f 2/72/26 54/73/26 26/74/26
f 31/75/27 52/76/27 10/77/27
f 1/78/28 55/79/28 31/80/28
f 30/81/29 51/70/29 55/82/29
f 56/60/30 4/83/30 27/84/30
f 52/63/31 27/84/31 10/85/31
f 25/62/32 56/60/32 52/63/32
f 30/86/33 49/87/33 9/88/33
f 1/89/34 57/90/34 30/91/34
f 58/92/35 2/93/35 26/94/35
f 49/87/36 26/94/36 9/88/36
f 33/95/37 46/96/37 12/97/37
f 2/98/38 59/99/38 33/100/38
f 60/101/39 3/102/39 28/103/39
f 46/96/40 28/103/40 12/97/40
f 35/104/41 43/105/41 14/106/41
f 3/107/42 61/108/42 35/109/42
f 62/110/43 4/111/43 29/112/43
f 43/105/44 29/112/44 14/106/44
f 40/26/45 21/113/45 39/114/45
f 1/89/46 63/115/46 32/116/46
f 37/117/47 16/118/47 38/119/47
f 40/26/48 27/120/48 64/16/48
f 50/58/49 35/3/49 14/121/49
f 25/62/50 65/1/50 50/58/50
f 53/122/51 28/123/51 65/1/51
f 67/124/52 75/125/52 18/126/52
f 8/127/53 78/128/53 67/129/53
f 70/130/54 76/131/54 17/132/54
f 5/133/55 79/134/55 70/135/55
f 71/136/56 75/125/56 79/137/56
f 80/54/57 6/138/57 66/139/57
f 76/140/58 66/139/58 17/141/58
f 74/52/59 68/6/59 19/142/59
f 77/143/60 73/144/60 81/4/60
f 65/1/61 28/123/61 3/2/61
f 81/4/62 73/144/62 7/5/62
f 47/8/63 24/48/63 17/9/63
f 6/145/64 13/146/64 47/147/64
f 66/7/65 6/148/65 47/8/65
f 44/11/66 23/40/66 19/12/66
f 7/149/67 15/150/67 44/151/67
f 68/10/68 7/152/68 44/11/68
f 41/14/69 22/32/69 20/15/69
f 8/153/70 16/154/70 41/155/70
f 69/13/71 8/156/71 41/14/71
f 64/16/72 27/120/72 4/17/72
f 18/23/73 21/157/73 38/19/73
f 38/19/74 16/158/74 8/20/74
f 67/21/75 18/23/75 38/19/75
f 5/159/76 11/160/76 39/161/76
f 39/22/77 21/157/77 18/23/77
f 71/24/78 5/162/78 39/22/78
f 31/25/79 10/163/79 40/26/79
f 37/164/80 62/165/80 41/166/80
f 43/105/81 61/167/81 42/168/81
f 42/31/82 15/169/82 7/35/82
f 20/15/83 22/32/83 42/31/83
f 73/34/84 20/15/84 42/31/84
f 36/170/85 60/171/85 44/172/85
f 46/96/86 59/173/86 45/174/86
f 45/39/87 13/175/87 6/43/87
f 19/12/88 23/40/88 45/39/88
f 72/42/89 19/12/89 45/39/89
f 34/176/90 58/177/90 47/178/90
f 49/87/91 57/179/91 48/180/91
f 48/47/92 11/181/92 5/51/92
f 17/9/93 24/48/93 48/47/93
f 70/50/94 17/9/94 48/47/94
f 74/52/95 19/142/95 72/53/95
f 69/13/96 20/15/96 77/182/96
f 50/58/97 14/121/97 29/59/97
f 55/61/98 51/68/98 25/62/98
f 33/64/99 12/183/99 53/65/99
f 54/67/100 53/122/100 25/62/100
f 26/69/101 54/184/101 51/70/101
f 2/72/102 33/185/102 54/73/102
f 31/75/103 55/186/103 52/76/103
f 1/78/104 30/187/104 55/79/104
f 30/81/105 9/71/105 51/70/105
f 56/60/106 29/59/106 4/83/106
f 52/63/107 56/60/107 27/84/107
f 25/62/108 50/58/108 56/60/108
f 30/86/109 57/179/109 49/87/109
f 1/89/110 32/116/110 57/90/110
f 57/179/111 32/188/111 48/180/111
f 11/189/112 48/190/112 32/191/112
f 58/92/113 34/192/113 2/93/113
f 49/87/114 58/92/114 26/94/114
f 58/92/115 49/87/115 47/193/115
f 24/48/116 47/8/116 49/49/116
f 33/95/117 59/173/117 46/96/117
f 2/98/118 34/194/118 59/99/118
f 59/173/119 34/195/119 45/174/119
f 13/196/120 45/197/120 34/198/120
f 60/101/121 36/199/121 3/102/121
f 46/96/122 60/101/122 28/103/122
f 60/101/123 46/96/123 44/200/123
f 23/40/124 44/11/124 46/41/124
f 35/104/125 61/167/125 43/105/125
f 3/107/126 36/201/126 61/108/126
f 61/167/127 36/202/127 42/168/127
f 15/203/128 42/204/128 36/205/128
f 62/110/129 37/206/129 4/111/129
f 43/105/130 62/110/130 29/112/130
f 62/110/131 43/105/131 41/207/131
f 22/32/132 41/14/132 43/33/132
f 63/27/133 40/26/133 39/114/133
f 39/208/134 11/209/134 32/210/134
f 32/211/135 63/212/135 39/213/135
f 1/89/136 31/214/136 63/115/136
f 64/16/137 37/18/137 38/215/137
f 38/19/138 21/157/138 40/216/138
f 40/26/139 64/16/139 38/215/139
f 40/26/140 10/163/140 27/120/140
f 50/58/141 65/1/141 35/3/141
f 25/62/142 53/122/142 65/1/142
f 53/122/143 12/217/143 28/123/143
f 67/124/144 78/218/144 75/125/144
f 8/127/145 69/219/145 78/128/145
f 70/130/146 79/220/146 76/131/146
f 5/133/147 71/221/147 79/134/147
f 71/136/148 18/126/148 75/125/148
f 80/54/149 72/53/149 6/138/149
f 76/140/150 80/54/150 66/139/150
f 74/52/151 81/4/151 68/6/151
f 77/182/152 20/15/152 73/34/152
f 81/222/153 82/223/153 77/224/153
f 82/225/154 83/226/154 77/227/154
f 83/228/155 82/229/155 84/230/155
f 83/231/156 85/232/156 77/233/156
f 86/234/157 78/235/157 85/236/157
f 78/237/158 77/238/158 85/239/158
f 86/234/159 85/236/159 87/240/159
f 85/241/160 83/242/160 87/243/160
f 74/244/161 88/245/161 81/246/161
f 84/247/162 82/248/162 88/249/162
f 82/250/163 81/251/163 88/252/163
f 88/253/164 74/254/164 89/255/164
f 89/255/165 90/256/165 88/253/165
f 80/257/166 89/258/166 74/259/166
f 89/260/167 80/261/167 91/262/167
f 80/54/168 76/140/168 91/263/168
f 76/140/169 79/264/169 92/265/169
f 75/266/170 93/267/170 92/268/170
f 75/269/171 92/265/171 79/264/171
f 93/270/172 75/271/172 94/272/172
f 75/273/173 78/274/173 94/275/173
f 86/234/174 94/276/174 78/235/174
f 92/265/175 95/277/175 76/140/175
f 91/263/176 76/140/176 95/277/176
f 87/278/177 96/279/177 86/280/177
f 87/278/178 83/281/178 96/279/178
f 84/247/179 96/282/179 83/283/179
f 94/284/180 86/285/180 97/286/180
f 94/284/181 97/286/181 93/287/181
f 96/282/182 97/286/182 86/285/182
f 96/282/183 84/247/183 98/288/183
f 98/288/184 84/247/184 90/289/184
f 84/247/185 88/249/185 90/289/185
f 90/289/186 89/290/186 99/291/186
f 98/288/187 90/289/187 99/291/187
f 91/292/188 100/293/188 89/290/188
f 99/291/189 89/290/189 100/293/189
f 97/286/190 101/294/190 93/287/190
f 93/287/191 101/294/191 92/295/191
f 95/296/192 92/297/192 102/298/192
f 101/294/193 102/299/193 92/295/193
f 95/300/194 100/301/194 91/302/194
f 102/299/195 100/293/195 95/303/195
f 100/293/196 102/299/196 99/291/196
f 102/299/197 103/304/197 99/291/197
f 99/291/198 103/304/198 98/288/198
f 98/288/199 103/304/199 96/282/199
f 97/286/200 96/282/200 103/304/200
f 101/294/201 97/286/201 103/304/201
f 102/299/202 101/294/202 103/304/202
